<svg xmlns="http://www.w3.org/2000/svg" viewBox="0 0 1024 1024">
  <defs>
    <linearGradient id="bg" x1="128" y1="128" x2="896" y2="896" gradientUnits="userSpaceOnUse">
      <stop offset="0" stop-color="#0ba79d"/>
      <stop offset="0.44" stop-color="#3f76d4"/>
      <stop offset="0.76" stop-color="#7c5cff"/>
      <stop offset="1" stop-color="#cf5379"/>
    </linearGradient>
    <linearGradient id="shine" x1="224" y1="128" x2="768" y2="896" gradientUnits="userSpaceOnUse">
      <stop offset="0" stop-color="#ffffff" stop-opacity="0.72"/>
      <stop offset="0.42" stop-color="#ffffff" stop-opacity="0.18"/>
      <stop offset="1" stop-color="#ffffff" stop-opacity="0"/>
    </linearGradient>
    <filter id="shadow" x="-20%" y="-20%" width="140%" height="140%">
      <feDropShadow dx="0" dy="26" stdDeviation="34" flood-color="#20304f" flood-opacity="0.28"/>
    </filter>
  </defs>
  <rect width="1024" height="1024" rx="232" fill="#f7fbff"/>
  <rect x="88" y="88" width="848" height="848" rx="196" fill="url(#bg)" filter="url(#shadow)"/>
  <path d="M232 298c0-34 28-62 62-62h236c126 0 216 80 216 198s-90 198-216 198H416v110c0 34-28 62-62 62h-60c-34 0-62-28-62-62V298Zm184 98v78h100c31 0 52-15 52-39s-21-39-52-39H416Z" fill="#ffffff"/>
  <path d="M604 644h120c38 0 68 30 68 68v46c0 38-30 68-68 68H604c-38 0-68-30-68-68v-46c0-38 30-68 68-68Z" fill="#7ff4df" opacity="0.92"/>
  <path d="M88 88h848v360C702 402 392 276 88 340V88Z" fill="url(#shine)"/>
</svg>
